<?xml version="1.0" standalone="no"?>
<!DOCTYPE svg PUBLIC "-//W3C//DTD SVG 20010904//EN"
 "http://www.w3.org/TR/2001/REC-SVG-20010904/DTD/svg10.dtd">
<svg version="1.0" xmlns="http://www.w3.org/2000/svg"
 width="96.000000pt" height="96.000000pt" viewBox="0 0 96.000000 96.000000"
 preserveAspectRatio="xMidYMid meet">

<g transform="translate(0.000000,96.000000) scale(0.100000,-0.100000)"
fill="#000000" stroke="none">
<path d="M150 780 c0 -6 117 -10 330 -10 213 0 330 4 330 10 0 6 -117 10 -330
10 -213 0 -330 -4 -330 -10z"/>
<path d="M100 711 c-6 -12 -10 -114 -10 -261 0 -147 4 -249 10 -261 10 -18 25
-19 380 -19 355 0 370 1 380 19 6 12 10 114 10 261 0 147 -4 249 -10 261 -10
18 -25 19 -380 19 -355 0 -370 -1 -380 -19z m735 -261 l0 -255 -355 0 -355 0
-3 245 c-1 134 0 250 3 257 3 11 78 13 357 11 l353 -3 0 -255z"/>
<path d="M304 581 c-6 -28 -10 -30 -53 -33 l-46 -3 0 -125 0 -125 165 0 165 0
3 105 c4 147 3 150 -58 150 -46 0 -49 2 -52 28 -3 26 -6 27 -61 30 -57 3 -57
3 -63 -27z m106 -11 c0 -17 -7 -20 -40 -20 -33 0 -40 3 -40 20 0 17 7 20 40
20 33 0 40 -3 40 -20z m-155 -151 c0 -91 -2 -104 -17 -107 -16 -3 -18 7 -18
101 0 57 3 107 7 111 20 20 28 -8 28 -105z m195 1 l0 -111 -82 3 -83 3 -3 94
c-1 52 -1 100 2 108 4 9 28 13 86 13 l80 0 0 -110z m60 0 c0 -91 -3 -110 -15
-110 -12 0 -15 19 -15 110 0 91 3 110 15 110 12 0 15 -19 15 -110z"/>
<path d="M620 315 c0 -14 5 -25 10 -25 6 0 10 11 10 25 0 14 -4 25 -10 25 -5
0 -10 -11 -10 -25z"/>
<path d="M680 315 c0 -14 5 -25 10 -25 6 0 10 11 10 25 0 14 -4 25 -10 25 -5
0 -10 -11 -10 -25z"/>
<path d="M740 315 c0 -14 5 -25 10 -25 6 0 10 11 10 25 0 14 -4 25 -10 25 -5
0 -10 -11 -10 -25z"/>
</g>
</svg>
